<svg width="25" height="25" viewBox="0 0 25 25" fill="none" xmlns="http://www.w3.org/2000/svg">
<g clip-path="url(#clip0_1_835)">
<path d="M19.5313 6.25V16.4062C19.5313 16.6135 19.4489 16.8122 19.3024 16.9587C19.1559 17.1052 18.9572 17.1875 18.75 17.1875C18.5428 17.1875 18.3441 17.1052 18.1976 16.9587C18.0511 16.8122 17.9688 16.6135 17.9688 16.4062V8.13574L6.80274 19.3027C6.65615 19.4493 6.45732 19.5317 6.25001 19.5317C6.04269 19.5317 5.84387 19.4493 5.69727 19.3027C5.55068 19.1561 5.46832 18.9573 5.46832 18.75C5.46832 18.5427 5.55068 18.3439 5.69727 18.1973L16.8643 7.03125H8.59376C8.38656 7.03125 8.18784 6.94894 8.04133 6.80243C7.89482 6.65591 7.81251 6.4572 7.81251 6.25C7.81251 6.0428 7.89482 5.84409 8.04133 5.69757C8.18784 5.55106 8.38656 5.46875 8.59376 5.46875H18.75C18.9572 5.46875 19.1559 5.55106 19.3024 5.69757C19.4489 5.84409 19.5313 6.0428 19.5313 6.25Z" fill="white"/>
</g>
<defs>
<clipPath id="clip0_1_835">
<rect width="25" height="25" fill="white"/>
</clipPath>
</defs>
</svg>
