<svg width="40" height="40" viewBox="0 0 40 40" fill="none" xmlns="http://www.w3.org/2000/svg">
<path d="M23 22.25C23 20.179 24.679 18.5 26.75 18.5C28.821 18.5 30.5 20.179 30.5 22.25H23Z" fill="white" fill-opacity="0.2"/>
<path d="M16.813 19.625H16.438C17.991 19.625 19.25 18.366 19.25 16.813C19.25 15.259 17.991 14 16.438 14H11V26H16.813C18.573 26 20 24.573 20 22.813C20 21.052 18.573 19.625 16.813 19.625Z" fill="white" fill-opacity="0.2"/>
<path d="M23.75 15.5H29.75" stroke="white" stroke-width="1.5" stroke-linecap="round" stroke-linejoin="round"/>
<path d="M11 19.625H16.813C18.573 19.625 20 21.052 20 22.813C20 24.573 18.573 26 16.813 26H11V14H16.438C17.991 14 19.25 15.259 19.25 16.813C19.25 18.366 17.991 19.625 16.438 19.625" stroke="white" stroke-width="1.5" stroke-linecap="round" stroke-linejoin="round"/>
<path d="M29.7502 24.4999C28.6462 25.9719 26.6382 26.4259 25.0092 25.5719C23.3802 24.7179 22.6102 22.8089 23.1922 21.0639C23.7742 19.3199 25.5352 18.2539 27.3502 18.5489C29.1662 18.8429 30.5002 20.4109 30.5002 22.2499H23.0002" stroke="white" stroke-width="1.5" stroke-linecap="round" stroke-linejoin="round"/>
</svg>
