<svg width="24" height="24" viewBox="0 0 24 24" fill="none" xmlns="http://www.w3.org/2000/svg">
<path d="M17.2744 14.0328C17.5176 13.5887 18.156 13.589 18.3994 14.0328L19.2031 15.5026C19.4034 15.8688 19.7052 16.1703 20.0713 16.3707L21.541 17.1744C21.9856 17.4177 21.9856 18.0562 21.541 18.2994L20.0713 19.1032C19.705 19.3035 19.4035 19.605 19.2031 19.9713L18.3994 21.441C18.1562 21.8857 17.5176 21.8857 17.2744 21.441L16.4707 19.9713C16.2703 19.6052 15.9688 19.3034 15.6025 19.1032L14.1328 18.2994C13.689 18.056 13.6887 17.4176 14.1328 17.1744L15.6025 16.3707C15.969 16.1703 16.2703 15.869 16.4707 15.5026L17.2744 14.0328ZM12.0274 2.30042C13.4672 2.3003 14.3327 2.29995 15.0732 2.44398C18.2014 3.05247 20.6474 5.49841 21.2559 8.62659C21.3999 9.36723 21.4005 10.2325 21.4004 11.6725V11.8951C21.4003 12.4197 20.9748 12.8452 20.4502 12.8453C19.9256 12.8453 19.5001 12.4198 19.5 11.8951V11.8004C19.5 10.1943 19.4951 9.52614 19.3906 8.9889C18.9298 6.62114 17.0787 4.76991 14.7109 4.30921C14.1737 4.20472 13.5062 4.19984 11.9004 4.19984C10.2943 4.19984 9.62612 4.20471 9.08887 4.30921C6.72116 4.76998 4.86996 6.62119 4.40919 8.9889C4.30468 9.52615 4.29981 10.1943 4.29981 11.8004C4.29981 13.4062 4.30469 14.0738 4.40919 14.611C4.86989 16.9788 6.72111 18.8299 9.08887 19.2907C9.62612 19.3952 10.2943 19.4 11.9004 19.4C12.4249 19.4002 12.8496 19.8257 12.8496 20.3502C12.8495 20.8747 12.4248 21.3002 11.9004 21.3004C11.8574 21.3004 11.8145 21.3004 11.7725 21.3004C10.3324 21.3005 9.4672 21.3 8.72657 21.1559C5.59839 20.5474 3.15244 18.1015 2.54395 14.9733C2.39993 14.2327 2.40028 13.3673 2.4004 11.9274V11.6725C2.40028 10.2325 2.39989 9.36722 2.54395 8.62659C3.15245 5.4984 5.59837 3.05247 8.72657 2.44398C9.4672 2.29991 10.3324 2.3003 11.7725 2.30042H12.0274ZM13.6738 12.6354C14.0568 12.3291 14.6163 12.3923 14.9229 12.775C15.229 13.1581 15.167 13.7167 14.7842 14.0231C13.1614 15.3213 10.8552 15.3213 9.23243 14.0231C8.84995 13.7166 8.78774 13.1579 9.09376 12.775C9.40013 12.3921 9.95972 12.3293 10.3428 12.6354C11.3167 13.4145 12.6999 13.4145 13.6738 12.6354ZM9.43165 7.99964C10.1673 7.99964 10.7642 8.59616 10.7647 9.33167C10.7647 10.0676 10.1675 10.6647 9.43165 10.6647C8.69613 10.6642 8.09962 10.0673 8.09962 9.33167C8.10007 8.59644 8.69641 8.00009 9.43165 7.99964ZM14.4072 7.99964C15.1427 7.99988 15.7388 8.5963 15.7393 9.33167C15.7393 10.0674 15.1429 10.6644 14.4072 10.6647C13.6715 10.6645 13.0742 10.0674 13.0742 9.33167C13.0747 8.59629 13.6718 7.99985 14.4072 7.99964Z" fill="#21C828"/>
</svg>
