<svg width="23" height="24" viewBox="0 0 23 24" fill="none" xmlns="http://www.w3.org/2000/svg">
<path d="M16.7744 14.0328C17.0176 13.5887 17.656 13.589 17.8994 14.0328L18.7031 15.5026C18.9034 15.8688 19.2052 16.1703 19.5713 16.3707L21.041 17.1744C21.4856 17.4177 21.4856 18.0562 21.041 18.2994L19.5713 19.1032C19.205 19.3035 18.9035 19.605 18.7031 19.9713L17.8994 21.441C17.6562 21.8857 17.0176 21.8857 16.7744 21.441L15.9707 19.9713C15.7703 19.6052 15.4688 19.3034 15.1025 19.1032L13.6328 18.2994C13.189 18.056 13.1887 17.4176 13.6328 17.1744L15.1025 16.3707C15.469 16.1703 15.7703 15.869 15.9707 15.5026L16.7744 14.0328ZM11.5274 2.30042C12.9672 2.3003 13.8327 2.29995 14.5732 2.44398C17.7014 3.05247 20.1474 5.49841 20.7559 8.62659C20.8999 9.36723 20.9005 10.2325 20.9004 11.6725V11.8951C20.9003 12.4197 20.4748 12.8452 19.9502 12.8453C19.4256 12.8453 19.0001 12.4198 19 11.8951V11.8004C19 10.1943 18.9951 9.52614 18.8906 8.9889C18.4298 6.62114 16.5787 4.76991 14.2109 4.30921C13.6737 4.20472 13.0062 4.19984 11.4004 4.19984C9.79431 4.19984 9.12612 4.20471 8.58887 4.30921C6.22116 4.76998 4.36996 6.62119 3.90919 8.9889C3.80468 9.52615 3.79981 10.1943 3.79981 11.8004C3.79981 13.4062 3.80469 14.0738 3.90919 14.611C4.36989 16.9788 6.22111 18.8299 8.58887 19.2907C9.12612 19.3952 9.79431 19.4 11.4004 19.4C11.9249 19.4002 12.3496 19.8257 12.3496 20.3502C12.3495 20.8747 11.9248 21.3002 11.4004 21.3004C11.3574 21.3004 11.3145 21.3004 11.2725 21.3004C9.83243 21.3005 8.9672 21.3 8.22657 21.1559C5.09839 20.5474 2.65244 18.1015 2.04395 14.9733C1.89993 14.2327 1.90028 13.3673 1.9004 11.9274V11.6725C1.90028 10.2325 1.89989 9.36722 2.04395 8.62659C2.65245 5.4984 5.09837 3.05247 8.22657 2.44398C8.9672 2.29991 9.83245 2.3003 11.2725 2.30042H11.5274ZM13.1738 12.6354C13.5568 12.3291 14.1163 12.3923 14.4229 12.775C14.729 13.1581 14.667 13.7167 14.2842 14.0231C12.6614 15.3213 10.3552 15.3213 8.73243 14.0231C8.34995 13.7166 8.28774 13.1579 8.59376 12.775C8.90013 12.3921 9.45972 12.3293 9.84278 12.6354C10.8167 13.4145 12.1999 13.4145 13.1738 12.6354ZM8.93165 7.99964C9.66727 7.99964 10.2642 8.59616 10.2647 9.33167C10.2647 10.0676 9.66755 10.6647 8.93165 10.6647C8.19613 10.6642 7.59962 10.0673 7.59962 9.33167C7.60007 8.59644 8.19641 8.00009 8.93165 7.99964ZM13.9072 7.99964C14.6427 7.99988 15.2388 8.5963 15.2393 9.33167C15.2393 10.0674 14.6429 10.6644 13.9072 10.6647C13.1715 10.6645 12.5742 10.0674 12.5742 9.33167C12.5747 8.59629 13.1718 7.99985 13.9072 7.99964Z" fill="#FF6221"/>
</svg>
