<svg width="18" height="18" viewBox="0 0 18 18" fill="none" xmlns="http://www.w3.org/2000/svg">
<path opacity="0.2" d="M14.625 5.34375C14.625 5.8659 14.4176 6.36665 14.0484 6.73587C13.6792 7.10508 13.1784 7.3125 12.6562 7.3125H10.6875V5.34375C10.6875 4.82161 10.8949 4.32085 11.2641 3.95163C11.6333 3.58242 12.1341 3.375 12.6562 3.375C13.1784 3.375 13.6792 3.58242 14.0484 3.95163C14.4176 4.32085 14.625 4.82161 14.625 5.34375ZM5.34375 3.375C4.82161 3.375 4.32085 3.58242 3.95163 3.95163C3.58242 4.32085 3.375 4.82161 3.375 5.34375C3.375 5.8659 3.58242 6.36665 3.95163 6.73587C4.32085 7.10508 4.82161 7.3125 5.34375 7.3125H7.3125V5.34375C7.3125 4.82161 7.10508 4.32085 6.73587 3.95163C6.36665 3.58242 5.8659 3.375 5.34375 3.375ZM12.6562 10.6875H10.6875V12.6562C10.6875 13.1784 10.8949 13.6792 11.2641 14.0484C11.6333 14.4176 12.1341 14.625 12.6562 14.625C13.1784 14.625 13.6792 14.4176 14.0484 14.0484C14.4176 13.6792 14.625 13.1784 14.625 12.6562C14.625 12.1341 14.4176 11.6333 14.0484 11.2641C13.6792 10.8949 13.1784 10.6875 12.6562 10.6875ZM3.375 12.6562C3.375 13.1784 3.58242 13.6792 3.95163 14.0484C4.32085 14.4176 4.82161 14.625 5.34375 14.625C5.8659 14.625 6.36665 14.4176 6.73587 14.0484C7.10508 13.6792 7.3125 13.1784 7.3125 12.6562V10.6875H5.34375C4.82161 10.6875 4.32085 10.8949 3.95163 11.2641C3.58242 11.6333 3.375 12.1341 3.375 12.6562Z" fill="#1D1F13"/>
<path d="M12.6563 10.125H11.25V7.875H12.6563C13.1569 7.875 13.6463 7.72655 14.0625 7.44841C14.4788 7.17027 14.8032 6.77494 14.9948 6.31242C15.1864 5.84989 15.2365 5.34094 15.1389 4.84993C15.0412 4.35891 14.8001 3.90789 14.4461 3.55389C14.0921 3.19989 13.6411 2.95881 13.1501 2.86114C12.6591 2.76347 12.1501 2.8136 11.6876 3.00518C11.2251 3.19677 10.8297 3.5212 10.5516 3.93746C10.2735 4.35373 10.125 4.84312 10.125 5.34375V6.75H7.875V5.34375C7.875 4.84312 7.72655 4.35373 7.44841 3.93746C7.17027 3.5212 6.77494 3.19677 6.31242 3.00518C5.84989 2.8136 5.34094 2.76347 4.84993 2.86114C4.35891 2.95881 3.90789 3.19989 3.55389 3.55389C3.19989 3.90789 2.95881 4.35891 2.86114 4.84993C2.76347 5.34094 2.8136 5.84989 3.00518 6.31242C3.19677 6.77494 3.5212 7.17027 3.93746 7.44841C4.35373 7.72655 4.84312 7.875 5.34375 7.875H6.75V10.125H5.34375C4.84312 10.125 4.35373 10.2735 3.93746 10.5516C3.5212 10.8297 3.19677 11.2251 3.00518 11.6876C2.8136 12.1501 2.76347 12.6591 2.86114 13.1501C2.95881 13.6411 3.19989 14.0921 3.55389 14.4461C3.90789 14.8001 4.35891 15.0412 4.84993 15.1389C5.34094 15.2365 5.84989 15.1864 6.31242 14.9948C6.77494 14.8032 7.17027 14.4788 7.44841 14.0625C7.72655 13.6463 7.875 13.1569 7.875 12.6563V11.25H10.125V12.6563C10.125 13.1569 10.2735 13.6463 10.5516 14.0625C10.8297 14.4788 11.2251 14.8032 11.6876 14.9948C12.1501 15.1864 12.6591 15.2365 13.1501 15.1389C13.6411 15.0412 14.0921 14.8001 14.4461 14.4461C14.8001 14.0921 15.0412 13.6411 15.1389 13.1501C15.2365 12.6591 15.1864 12.1501 14.9948 11.6876C14.8032 11.2251 14.4788 10.8297 14.0625 10.5516C13.6463 10.2735 13.1569 10.125 12.6563 10.125ZM11.25 5.34375C11.25 5.06562 11.3325 4.79374 11.487 4.56248C11.6415 4.33122 11.8611 4.15098 12.1181 4.04455C12.3751 3.93811 12.6578 3.91026 12.9306 3.96452C13.2034 4.01878 13.454 4.15271 13.6506 4.34938C13.8473 4.54605 13.9812 4.79662 14.0355 5.06941C14.0897 5.34219 14.0619 5.62494 13.9555 5.8819C13.849 6.13886 13.6688 6.35848 13.4375 6.51301C13.2063 6.66753 12.9344 6.75 12.6563 6.75H11.25V5.34375ZM3.9375 5.34375C3.9375 4.97079 4.08566 4.61311 4.34938 4.34938C4.61311 4.08566 4.97079 3.9375 5.34375 3.9375C5.71671 3.9375 6.0744 4.08566 6.33812 4.34938C6.60184 4.61311 6.75 4.97079 6.75 5.34375V6.75H5.34375C4.97079 6.75 4.61311 6.60184 4.34938 6.33812C4.08566 6.0744 3.9375 5.71671 3.9375 5.34375ZM6.75 12.6563C6.75 12.9344 6.66753 13.2063 6.51301 13.4375C6.35848 13.6688 6.13886 13.849 5.8819 13.9555C5.62494 14.0619 5.34219 14.0897 5.06941 14.0355C4.79662 13.9812 4.54605 13.8473 4.34938 13.6506C4.15271 13.454 4.01878 13.2034 3.96452 12.9306C3.91026 12.6578 3.93811 12.3751 4.04455 12.1181C4.15098 11.8611 4.33122 11.6415 4.56248 11.487C4.79374 11.3325 5.06562 11.25 5.34375 11.25H6.75V12.6563ZM7.875 7.875H10.125V10.125H7.875V7.875ZM12.6563 14.0625C12.2833 14.0625 11.9256 13.9143 11.6619 13.6506C11.3982 13.3869 11.25 13.0292 11.25 12.6563V11.25H12.6563C13.0292 11.25 13.3869 11.3982 13.6506 11.6619C13.9143 11.9256 14.0625 12.2833 14.0625 12.6563C14.0625 13.0292 13.9143 13.3869 13.6506 13.6506C13.3869 13.9143 13.0292 14.0625 12.6563 14.0625Z" fill="#1D1F13"/>
</svg>
