<svg width="9" height="9" viewBox="0 0 9 9" fill="none" xmlns="http://www.w3.org/2000/svg">
<path d="M8.78694 8.78672C8.6505 8.92316 8.46546 8.9998 8.27251 8.9998C8.07956 8.9998 7.89451 8.92316 7.75807 8.78672L4.5 5.52865L1.24193 8.78672C1.10549 8.92316 0.920443 8.9998 0.727494 8.9998C0.534544 8.9998 0.349497 8.92316 0.213061 8.78672C0.0766245 8.65028 -2.40937e-05 8.46524 -2.40937e-05 8.27229C-2.37448e-05 8.07934 0.0766245 7.89429 0.213061 7.75785L3.47113 4.49978L0.213061 1.24171C0.0766246 1.10527 -2.39847e-05 0.920222 -2.42027e-05 0.727273C-2.40828e-05 0.534323 0.0766245 0.349276 0.213061 0.21284C0.349497 0.0764042 0.534544 -0.000244764 0.727494 -0.000244884C0.920443 -0.000244666 1.10549 0.0764043 1.24193 0.21284L4.5 3.47091L7.75807 0.21284C7.89451 0.0764043 8.07956 -0.000244666 8.27251 -0.000244884C8.46546 -0.000244764 8.6505 0.0764042 8.78694 0.21284C8.92338 0.349276 9.00002 0.534323 9.00002 0.727273C9.00002 0.920222 8.92338 1.10527 8.78694 1.24171L5.52887 4.49978L8.78694 7.75785C8.92338 7.89429 9.00002 8.07934 9.00002 8.27229C9.00002 8.46524 8.92338 8.65028 8.78694 8.78672Z" fill="white"/>
</svg>
