<svg width="24" height="23" viewBox="0 0 24 23" fill="none" xmlns="http://www.w3.org/2000/svg">
<path d="M17.2744 13.6328C17.5176 13.1887 18.156 13.189 18.3994 13.6328L19.2031 15.1025C19.4034 15.4687 19.7052 15.7703 20.0713 15.9707L21.541 16.7744C21.9856 17.0176 21.9856 17.6562 21.541 17.8994L20.0713 18.7031C19.705 18.9035 19.4035 19.205 19.2031 19.5713L18.3994 21.041C18.1562 21.4856 17.5176 21.4856 17.2744 21.041L16.4707 19.5713C16.2703 19.2052 15.9688 18.9034 15.6025 18.7031L14.1328 17.8994C13.689 17.6559 13.6887 17.0175 14.1328 16.7744L15.6025 15.9707C15.969 15.7703 16.2703 15.4689 16.4707 15.1025L17.2744 13.6328ZM12.0274 1.90037C13.4672 1.90025 14.3327 1.8999 15.0732 2.04392C18.2014 2.65241 20.6474 5.09836 21.2559 8.22654C21.3999 8.96717 21.4005 9.8324 21.4004 11.2724V11.4951C21.4003 12.0197 20.9748 12.4452 20.4502 12.4453C19.9256 12.4453 19.5001 12.0197 19.5 11.4951V11.4004C19.5 9.79428 19.4951 9.12609 19.3906 8.58884C18.9298 6.22108 17.0787 4.36985 14.7109 3.90916C14.1737 3.80466 13.5062 3.79978 11.9004 3.79978C10.2943 3.79978 9.62612 3.80465 9.08887 3.90916C6.72116 4.36993 4.86996 6.22113 4.40919 8.58884C4.30468 9.12609 4.29981 9.79428 4.29981 11.4004C4.29981 13.0062 4.30469 13.6737 4.40919 14.2109C4.86989 16.5787 6.72111 18.4298 9.08887 18.8906C9.62612 18.9951 10.2943 19 11.9004 19C12.4249 19.0002 12.8496 19.4256 12.8496 19.9502C12.8495 20.4746 12.4248 20.9002 11.9004 20.9004C11.8574 20.9004 11.8145 20.9004 11.7725 20.9004C10.3324 20.9005 9.4672 20.8999 8.72657 20.7558C5.59839 20.1473 3.15244 17.7014 2.54395 14.5732C2.39993 13.8326 2.40028 12.9672 2.4004 11.5273V11.2724C2.40028 9.83242 2.39989 8.96717 2.54395 8.22654C3.15245 5.09834 5.59837 2.65241 8.72657 2.04392C9.4672 1.89986 10.3324 1.90025 11.7725 1.90037H12.0274ZM13.6738 12.2353C14.0568 11.929 14.6163 11.9923 14.9229 12.375C15.229 12.758 15.167 13.3166 14.7842 13.623C13.1614 14.9212 10.8552 14.9212 9.23243 13.623C8.84995 13.3165 8.78774 12.7579 9.09376 12.375C9.40013 11.9921 9.95972 11.9293 10.3428 12.2353C11.3167 13.0145 12.6999 13.0144 13.6738 12.2353ZM9.43165 7.59959C10.1673 7.59959 10.7642 8.19611 10.7647 8.93162C10.7647 9.66752 10.1675 10.2646 9.43165 10.2646C8.69613 10.2642 8.09962 9.66724 8.09962 8.93162C8.10007 8.19638 8.69641 7.60003 9.43165 7.59959ZM14.4072 7.59959C15.1427 7.59982 15.7388 8.19625 15.7393 8.93162C15.7393 9.66737 15.1429 10.2644 14.4072 10.2646C13.6715 10.2644 13.0742 9.66739 13.0742 8.93162C13.0747 8.19623 13.6718 7.5998 14.4072 7.59959Z" fill="#FFD700"/>
</svg>
