<svg width="24" height="23" viewBox="0 0 24 23" fill="none" xmlns="http://www.w3.org/2000/svg">
<path d="M17.5244 13.6328C17.7676 13.1887 18.406 13.189 18.6494 13.6328L19.4531 15.1025C19.6534 15.4687 19.9552 15.7703 20.3213 15.9707L21.791 16.7744C22.2356 17.0176 22.2356 17.6562 21.791 17.8994L20.3213 18.7031C19.955 18.9035 19.6535 19.205 19.4531 19.5713L18.6494 21.041C18.4062 21.4856 17.7676 21.4856 17.5244 21.041L16.7207 19.5713C16.5203 19.2052 16.2188 18.9034 15.8525 18.7031L14.3828 17.8994C13.939 17.6559 13.9387 17.0175 14.3828 16.7744L15.8525 15.9707C16.219 15.7703 16.5203 15.4689 16.7207 15.1025L17.5244 13.6328ZM12.2774 1.90037C13.7172 1.90025 14.5827 1.8999 15.3232 2.04392C18.4514 2.65241 20.8974 5.09836 21.5059 8.22654C21.6499 8.96717 21.6505 9.8324 21.6504 11.2724V11.4951C21.6503 12.0197 21.2248 12.4452 20.7002 12.4453C20.1756 12.4453 19.7501 12.0197 19.75 11.4951V11.4004C19.75 9.79428 19.7451 9.12609 19.6406 8.58884C19.1798 6.22108 17.3287 4.36985 14.9609 3.90916C14.4237 3.80466 13.7562 3.79978 12.1504 3.79978C10.5443 3.79978 9.87612 3.80465 9.33887 3.90916C6.97116 4.36993 5.11996 6.22113 4.65919 8.58884C4.55468 9.12609 4.54981 9.79428 4.54981 11.4004C4.54981 13.0062 4.55469 13.6737 4.65919 14.2109C5.11989 16.5787 6.97111 18.4298 9.33887 18.8906C9.87612 18.9951 10.5443 19 12.1504 19C12.6749 19.0002 13.0996 19.4256 13.0996 19.9502C13.0995 20.4746 12.6748 20.9002 12.1504 20.9004C12.1074 20.9004 12.0645 20.9004 12.0225 20.9004C10.5824 20.9005 9.7172 20.8999 8.97657 20.7558C5.84839 20.1473 3.40244 17.7014 2.79395 14.5732C2.64993 13.8326 2.65028 12.9672 2.6504 11.5273V11.2724C2.65028 9.83242 2.64989 8.96717 2.79395 8.22654C3.40245 5.09834 5.84837 2.65241 8.97657 2.04392C9.7172 1.89986 10.5824 1.90025 12.0225 1.90037H12.2774ZM13.9238 12.2353C14.3068 11.929 14.8663 11.9923 15.1729 12.375C15.479 12.758 15.417 13.3166 15.0342 13.623C13.4114 14.9212 11.1052 14.9212 9.48243 13.623C9.09995 13.3165 9.03774 12.7579 9.34376 12.375C9.65013 11.9921 10.2097 11.9293 10.5928 12.2353C11.5667 13.0145 12.9499 13.0144 13.9238 12.2353ZM9.68165 7.59959C10.4173 7.59959 11.0142 8.19611 11.0147 8.93162C11.0147 9.66752 10.4175 10.2646 9.68165 10.2646C8.94613 10.2642 8.34962 9.66724 8.34962 8.93162C8.35007 8.19638 8.94641 7.60003 9.68165 7.59959ZM14.6572 7.59959C15.3927 7.59982 15.9888 8.19625 15.9893 8.93162C15.9893 9.66737 15.3929 10.2644 14.6572 10.2646C13.9215 10.2644 13.3242 9.66739 13.3242 8.93162C13.3247 8.19623 13.9218 7.5998 14.6572 7.59959Z" fill="#1F7CFF"/>
</svg>
