<svg width="30" height="30" viewBox="0 0 30 30" fill="none" xmlns="http://www.w3.org/2000/svg">
<path d="M15 15.1276V27.1876C14.8425 27.1864 14.6875 27.1464 14.55 27.0701L4.2375 21.4264C3.9375 21.2626 3.75125 20.9476 3.75 20.6064V9.39889C3.75 9.26639 3.7775 9.13514 3.8325 9.01514L15 15.1276Z" fill="white" fill-opacity="0.2"/>
<path d="M3.8325 9.01367L15 15.1262L26.1688 9.01367" stroke="white" stroke-width="1.875" stroke-linecap="round" stroke-linejoin="round"/>
<path d="M15.45 2.92977L25.7625 8.57602C26.0625 8.73977 26.2487 9.05477 26.25 9.39602V20.6035C26.2487 20.946 26.0625 21.2598 25.7625 21.4248L15.45 27.071C15.17 27.2235 14.83 27.2235 14.55 27.071L4.2375 21.4248C3.9375 21.2598 3.75125 20.946 3.75 20.6035V9.39602C3.75125 9.05477 3.9375 8.73977 4.2375 8.57602L14.55 2.92977C14.83 2.77602 15.17 2.77602 15.45 2.92977Z" stroke="white" stroke-width="1.875" stroke-linecap="round" stroke-linejoin="round"/>
<path d="M15 15.1274V27.1874" stroke="white" stroke-width="1.875" stroke-linecap="round" stroke-linejoin="round"/>
</svg>
