<svg width="35" height="35" viewBox="0 0 35 35" fill="none" xmlns="http://www.w3.org/2000/svg">
<g opacity="0.75">
<path opacity="0.2" d="M30.625 17.5C30.625 20.0959 29.8552 22.6335 28.413 24.7919C26.9708 26.9503 24.921 28.6325 22.5227 29.6259C20.1244 30.6193 17.4854 30.8792 14.9394 30.3728C12.3934 29.8664 10.0548 28.6163 8.21923 26.7808C6.38367 24.9452 5.13363 22.6066 4.6272 20.0606C4.12077 17.5146 4.38069 14.8756 5.37409 12.4773C6.36749 10.079 8.04975 8.02915 10.2081 6.58696C12.3665 5.14477 14.9041 4.375 17.5 4.375C20.981 4.375 24.3194 5.75781 26.7808 8.21922C29.2422 10.6806 30.625 14.019 30.625 17.5Z" fill="white"/>
<path d="M17.5 3.28125C14.6878 3.28125 11.9388 4.11517 9.60049 5.67754C7.26223 7.23992 5.43978 9.46058 4.36359 12.0587C3.28741 14.6569 3.00583 17.5158 3.55447 20.2739C4.1031 23.0321 5.4573 25.5656 7.44583 27.5542C9.43436 29.5427 11.9679 30.8969 14.7261 31.4455C17.4842 31.9942 20.3431 31.7126 22.9413 30.6364C25.5394 29.5602 27.7601 27.7378 29.3225 25.3995C30.8848 23.0613 31.7188 20.3122 31.7188 17.5C31.7148 13.7302 30.2155 10.1159 27.5498 7.45022C24.8841 4.78455 21.2698 3.28523 17.5 3.28125ZM17.5 29.5312C15.1205 29.5312 12.7943 28.8256 10.8158 27.5036C8.83727 26.1816 7.2952 24.3026 6.38458 22.1042C5.47396 19.9057 5.2357 17.4867 5.69993 15.1528C6.16416 12.819 7.31003 10.6752 8.99263 8.99262C10.6752 7.31002 12.819 6.16416 15.1528 5.69993C17.4867 5.2357 19.9057 5.47396 22.1042 6.38457C24.3026 7.29519 26.1816 8.83727 27.5036 10.8158C28.8256 12.7943 29.5313 15.1204 29.5313 17.5C29.5276 20.6898 28.2589 23.7479 26.0034 26.0034C23.7479 28.2589 20.6898 29.5276 17.5 29.5312ZM22.6488 17.8199C22.7505 17.9215 22.8312 18.0421 22.8862 18.1749C22.9413 18.3077 22.9696 18.45 22.9696 18.5938C22.9696 18.7375 22.9413 18.8798 22.8862 19.0126C22.8312 19.1454 22.7505 19.266 22.6488 19.3676L18.2738 23.7426C18.1723 23.8443 18.0516 23.9249 17.9188 23.98C17.7861 24.035 17.6437 24.0634 17.5 24.0634C17.3563 24.0634 17.2139 24.035 17.0812 23.98C16.9484 23.9249 16.8278 23.8443 16.7262 23.7426L12.3512 19.3676C12.1459 19.1623 12.0306 18.884 12.0306 18.5938C12.0306 18.3035 12.1459 18.0252 12.3512 17.8199C12.5564 17.6147 12.8348 17.4994 13.125 17.4994C13.4152 17.4994 13.6936 17.6147 13.8988 17.8199L16.4063 20.3287V12.0312C16.4063 11.7412 16.5215 11.463 16.7266 11.2579C16.9317 11.0527 17.2099 10.9375 17.5 10.9375C17.7901 10.9375 18.0683 11.0527 18.2734 11.2579C18.4785 11.463 18.5938 11.7412 18.5938 12.0312V20.3287L21.1012 17.8199C21.2028 17.7182 21.3234 17.6376 21.4562 17.5825C21.5889 17.5275 21.7313 17.4991 21.875 17.4991C22.0187 17.4991 22.1611 17.5275 22.2938 17.5825C22.4266 17.6376 22.5473 17.7182 22.6488 17.8199Z" fill="white"/>
</g>
</svg>
