<svg width="30" height="30" viewBox="0 0 30 30" fill="none" xmlns="http://www.w3.org/2000/svg">
<path d="M4.90517 17.2551C4.71892 17.4788 4.64642 17.7751 4.71017 18.0588L6.15892 24.5776C6.22892 24.8938 6.45767 25.1513 6.76267 25.2588C7.06767 25.3663 7.40767 25.3088 7.66017 25.1063L11.1114 22.5001C8.98892 18.9176 8.32017 15.7326 8.45642 12.9976L4.90517 17.2551Z" fill="white" fill-opacity="0.2"/>
<path d="M21.5438 12.9976C21.6863 15.7326 21.0125 18.9176 18.89 22.5001L22.3413 25.1063C22.5938 25.3088 22.9325 25.3663 23.2388 25.2588C23.5438 25.1513 23.7725 24.8938 23.8425 24.5776L25.2913 18.0588C25.3538 17.7751 25.2825 17.4788 25.0963 17.2551L21.5438 12.9976Z" fill="white" fill-opacity="0.2"/>
<path d="M16.875 26.25H13.125" stroke="white" stroke-width="1.875" stroke-linecap="round" stroke-linejoin="round"/>
<path d="M13.5938 11.7188C13.5938 10.9425 14.2237 10.3125 15 10.3125C15.7762 10.3125 16.4062 10.9425 16.4062 11.7188C16.4062 12.495 15.7762 13.125 15 13.125C14.2237 13.125 13.5938 12.495 13.5938 11.7188Z" fill="white"/>
<path d="M11.1113 22.4998C4.3975 11.1711 12.1725 3.81232 14.425 2.07232C14.7638 1.80857 15.2375 1.80857 15.5763 2.07232C17.8275 3.81232 25.6038 11.1711 18.89 22.4998H11.1113Z" stroke="white" stroke-width="1.875" stroke-linecap="round" stroke-linejoin="round"/>
<path d="M21.5438 12.9937L25.0963 17.2549C25.2825 17.4774 25.3538 17.7749 25.2913 18.0587L23.8425 24.5774C23.7725 24.8937 23.5438 25.1512 23.2388 25.2587C22.9325 25.3662 22.5938 25.3087 22.3413 25.1062L18.89 22.4999" stroke="white" stroke-width="1.875" stroke-linecap="round" stroke-linejoin="round"/>
<path d="M8.45642 12.9937L4.90517 17.2549C4.71892 17.4774 4.64642 17.7749 4.71017 18.0587L6.15892 24.5774C6.22892 24.8937 6.45767 25.1512 6.76267 25.2587C7.06767 25.3662 7.40767 25.3087 7.66017 25.1062L11.1114 22.4999" stroke="white" stroke-width="1.875" stroke-linecap="round" stroke-linejoin="round"/>
</svg>
