<svg width="24" height="24" viewBox="0 0 24 24" fill="none" xmlns="http://www.w3.org/2000/svg">
<path d="M17.5244 14.0328C17.7676 13.5887 18.406 13.589 18.6494 14.0328L19.4531 15.5026C19.6534 15.8688 19.9552 16.1703 20.3213 16.3707L21.791 17.1744C22.2356 17.4177 22.2356 18.0562 21.791 18.2994L20.3213 19.1032C19.955 19.3035 19.6535 19.605 19.4531 19.9713L18.6494 21.441C18.4062 21.8857 17.7676 21.8857 17.5244 21.441L16.7207 19.9713C16.5203 19.6052 16.2188 19.3034 15.8525 19.1032L14.3828 18.2994C13.939 18.056 13.9387 17.4176 14.3828 17.1744L15.8525 16.3707C16.219 16.1703 16.5203 15.869 16.7207 15.5026L17.5244 14.0328ZM12.2774 2.30042C13.7172 2.3003 14.5827 2.29995 15.3232 2.44398C18.4514 3.05247 20.8974 5.49841 21.5059 8.62659C21.6499 9.36723 21.6505 10.2325 21.6504 11.6725V11.8951C21.6503 12.4197 21.2248 12.8452 20.7002 12.8453C20.1756 12.8453 19.7501 12.4198 19.75 11.8951V11.8004C19.75 10.1943 19.7451 9.52614 19.6406 8.9889C19.1798 6.62114 17.3287 4.76991 14.9609 4.30921C14.4237 4.20472 13.7562 4.19984 12.1504 4.19984C10.5443 4.19984 9.87612 4.20471 9.33887 4.30921C6.97116 4.76998 5.11996 6.62119 4.65919 8.9889C4.55468 9.52615 4.54981 10.1943 4.54981 11.8004C4.54981 13.4062 4.55469 14.0738 4.65919 14.611C5.11989 16.9788 6.97111 18.8299 9.33887 19.2907C9.87612 19.3952 10.5443 19.4 12.1504 19.4C12.6749 19.4002 13.0996 19.8257 13.0996 20.3502C13.0995 20.8747 12.6748 21.3002 12.1504 21.3004C12.1074 21.3004 12.0645 21.3004 12.0225 21.3004C10.5824 21.3005 9.7172 21.3 8.97657 21.1559C5.84839 20.5474 3.40244 18.1015 2.79395 14.9733C2.64993 14.2327 2.65028 13.3673 2.6504 11.9274V11.6725C2.65028 10.2325 2.64989 9.36722 2.79395 8.62659C3.40245 5.4984 5.84837 3.05247 8.97657 2.44398C9.7172 2.29991 10.5824 2.3003 12.0225 2.30042H12.2774ZM13.9238 12.6354C14.3068 12.3291 14.8663 12.3923 15.1729 12.775C15.479 13.1581 15.417 13.7167 15.0342 14.0231C13.4114 15.3213 11.1052 15.3213 9.48243 14.0231C9.09995 13.7166 9.03774 13.1579 9.34376 12.775C9.65013 12.3921 10.2097 12.3293 10.5928 12.6354C11.5667 13.4145 12.9499 13.4145 13.9238 12.6354ZM9.68165 7.99964C10.4173 7.99964 11.0142 8.59616 11.0147 9.33167C11.0147 10.0676 10.4175 10.6647 9.68165 10.6647C8.94613 10.6642 8.34962 10.0673 8.34962 9.33167C8.35007 8.59644 8.94641 8.00009 9.68165 7.99964ZM14.6572 7.99964C15.3927 7.99988 15.9888 8.5963 15.9893 9.33167C15.9893 10.0674 15.3929 10.6644 14.6572 10.6647C13.9215 10.6645 13.3242 10.0674 13.3242 9.33167C13.3247 8.59629 13.9218 7.99985 14.6572 7.99964Z" fill="#9C98FF"/>
</svg>
