<svg width="30" height="30" viewBox="0 0 30 30" fill="none" xmlns="http://www.w3.org/2000/svg">
<path d="M21.0938 5.625C22.9062 5.625 24.375 7.09375 24.375 8.90625C24.375 10.7188 22.9062 12.1875 21.0938 12.1875H17.8125V8.90625C17.8125 7.09375 19.2812 5.625 21.0938 5.625Z" fill="white" fill-opacity="0.2"/>
<path d="M12.1875 12.1875H8.90625C7.09375 12.1875 5.625 10.7188 5.625 8.90625C5.625 7.09375 7.09375 5.625 8.90625 5.625C10.7188 5.625 12.1875 7.09375 12.1875 8.90625V12.1875Z" fill="white" fill-opacity="0.2"/>
<path d="M17.8125 17.8125H21.0938C22.9062 17.8125 24.375 19.2812 24.375 21.0938C24.375 22.9062 22.9062 24.375 21.0938 24.375C19.2812 24.375 17.8125 22.9062 17.8125 21.0938V17.8125Z" fill="white" fill-opacity="0.2"/>
<path d="M8.90625 24.375C7.09375 24.375 5.625 22.9062 5.625 21.0938C5.625 19.2812 7.09375 17.8125 8.90625 17.8125H12.1875V21.0938C12.1875 22.9062 10.7188 24.375 8.90625 24.375Z" fill="white" fill-opacity="0.2"/>
<path d="M8.90625 24.375C7.09375 24.375 5.625 22.9063 5.625 21.0938C5.625 19.2812 7.09375 17.8125 8.90625 17.8125H12.1875V21.0938C12.1875 22.9063 10.7188 24.375 8.90625 24.375Z" stroke="white" stroke-width="1.875" stroke-linecap="round" stroke-linejoin="round"/>
<path d="M21.0938 5.625C22.9063 5.625 24.375 7.09375 24.375 8.90625C24.375 10.7188 22.9063 12.1875 21.0938 12.1875H17.8125V8.90625C17.8125 7.09375 19.2812 5.625 21.0938 5.625Z" stroke="white" stroke-width="1.875" stroke-linecap="round" stroke-linejoin="round"/>
<path d="M12.1875 12.1875H8.90625C7.09375 12.1875 5.625 10.7188 5.625 8.90625C5.625 7.09375 7.09375 5.625 8.90625 5.625C10.7188 5.625 12.1875 7.09375 12.1875 8.90625V12.1875Z" stroke="white" stroke-width="1.875" stroke-linecap="round" stroke-linejoin="round"/>
<path d="M17.8125 17.8125H21.0938C22.9063 17.8125 24.375 19.2812 24.375 21.0938C24.375 22.9063 22.9063 24.375 21.0938 24.375C19.2812 24.375 17.8125 22.9063 17.8125 21.0938V17.8125Z" stroke="white" stroke-width="1.875" stroke-linecap="round" stroke-linejoin="round"/>
<path d="M12.1875 17.8125V12.1875H17.8125V17.8125H12.1875Z" stroke="white" stroke-width="1.875" stroke-linecap="round" stroke-linejoin="round"/>
</svg>
