<svg width="30" height="30" viewBox="0 0 30 30" fill="none" xmlns="http://www.w3.org/2000/svg">
<path d="M9.22264 19.5703C6.96514 17.8066 5.63889 15.1066 5.62514 12.2403C5.59764 7.15906 9.69389 2.93031 14.7739 2.81281C18.8114 2.71531 22.4589 5.21406 23.8239 9.01531C25.1901 12.8166 23.9676 17.0653 20.7901 19.5591C20.0976 20.0966 19.6914 20.9216 19.6876 21.7978V22.5003C19.6876 23.0178 19.2676 23.4378 18.7501 23.4378H11.2501C10.7326 23.4378 10.3126 23.0178 10.3126 22.5003V21.7978C10.3114 20.9266 9.91014 20.1053 9.22264 19.5703Z" fill="white" fill-opacity="0.2"/>
<path d="M10.3125 27.1875H19.6875" stroke="white" stroke-width="1.875" stroke-linecap="round" stroke-linejoin="round"/>
<path d="M9.22264 19.5703C6.96514 17.8066 5.63889 15.1066 5.62514 12.2403C5.59764 7.15906 9.69389 2.93031 14.7739 2.81281C18.8114 2.71531 22.4589 5.21406 23.8239 9.01531C25.1901 12.8166 23.9676 17.0653 20.7901 19.5591C20.0976 20.0966 19.6914 20.9216 19.6876 21.7978V22.5003C19.6876 23.0178 19.2676 23.4378 18.7501 23.4378H11.2501C10.7326 23.4378 10.3126 23.0178 10.3126 22.5003V21.7978C10.3114 20.9266 9.91014 20.1053 9.22264 19.5703Z" stroke="white" stroke-width="1.875" stroke-linecap="round" stroke-linejoin="round"/>
<path d="M15.9375 6.5625C18.2812 6.9575 20.2275 8.90625 20.625 11.25" stroke="white" stroke-width="1.875" stroke-linecap="round" stroke-linejoin="round"/>
</svg>
