<svg width="24" height="23" viewBox="0 0 24 23" fill="none" xmlns="http://www.w3.org/2000/svg">
<path d="M17.0244 13.6328C17.2676 13.1887 17.906 13.189 18.1494 13.6328L18.9531 15.1025C19.1534 15.4687 19.4552 15.7703 19.8213 15.9707L21.291 16.7744C21.7356 17.0176 21.7356 17.6562 21.291 17.8994L19.8213 18.7031C19.455 18.9035 19.1535 19.205 18.9531 19.5713L18.1494 21.041C17.9062 21.4856 17.2676 21.4856 17.0244 21.041L16.2207 19.5713C16.0203 19.2052 15.7188 18.9034 15.3525 18.7031L13.8828 17.8994C13.439 17.6559 13.4387 17.0175 13.8828 16.7744L15.3525 15.9707C15.719 15.7703 16.0203 15.4689 16.2207 15.1025L17.0244 13.6328ZM11.7774 1.90037C13.2172 1.90025 14.0827 1.8999 14.8232 2.04392C17.9514 2.65241 20.3974 5.09836 21.0059 8.22654C21.1499 8.96717 21.1505 9.8324 21.1504 11.2724V11.4951C21.1503 12.0197 20.7248 12.4452 20.2002 12.4453C19.6756 12.4453 19.2501 12.0197 19.25 11.4951V11.4004C19.25 9.79428 19.2451 9.12609 19.1406 8.58884C18.6798 6.22108 16.8287 4.36985 14.4609 3.90916C13.9237 3.80466 13.2562 3.79978 11.6504 3.79978C10.0443 3.79978 9.37612 3.80465 8.83887 3.90916C6.47116 4.36993 4.61996 6.22113 4.15919 8.58884C4.05468 9.12609 4.04981 9.79428 4.04981 11.4004C4.04981 13.0062 4.05469 13.6737 4.15919 14.2109C4.61989 16.5787 6.47111 18.4298 8.83887 18.8906C9.37612 18.9951 10.0443 19 11.6504 19C12.1749 19.0002 12.5996 19.4256 12.5996 19.9502C12.5995 20.4746 12.1748 20.9002 11.6504 20.9004C11.6074 20.9004 11.5645 20.9004 11.5225 20.9004C10.0824 20.9005 9.2172 20.8999 8.47657 20.7558C5.34839 20.1473 2.90244 17.7014 2.29395 14.5732C2.14993 13.8326 2.15028 12.9672 2.1504 11.5273V11.2724C2.15028 9.83242 2.14989 8.96717 2.29395 8.22654C2.90245 5.09834 5.34837 2.65241 8.47657 2.04392C9.2172 1.89986 10.0824 1.90025 11.5225 1.90037H11.7774ZM13.4238 12.2353C13.8068 11.929 14.3663 11.9923 14.6729 12.375C14.979 12.758 14.917 13.3166 14.5342 13.623C12.9114 14.9212 10.6052 14.9212 8.98243 13.623C8.59995 13.3165 8.53774 12.7579 8.84376 12.375C9.15013 11.9921 9.70972 11.9293 10.0928 12.2353C11.0667 13.0145 12.4499 13.0144 13.4238 12.2353ZM9.18165 7.59959C9.91727 7.59959 10.5142 8.19611 10.5147 8.93162C10.5147 9.66752 9.91755 10.2646 9.18165 10.2646C8.44613 10.2642 7.84962 9.66724 7.84962 8.93162C7.85007 8.19638 8.44641 7.60003 9.18165 7.59959ZM14.1572 7.59959C14.8927 7.59982 15.4888 8.19625 15.4893 8.93162C15.4893 9.66737 14.8929 10.2644 14.1572 10.2646C13.4215 10.2644 12.8242 9.66739 12.8242 8.93162C12.8247 8.19623 13.4218 7.5998 14.1572 7.59959Z" fill="#12A594"/>
</svg>
