<svg width="23" height="23" viewBox="0 0 23 23" fill="none" xmlns="http://www.w3.org/2000/svg">
<path d="M16.7744 13.6328C17.0176 13.1887 17.656 13.189 17.8994 13.6328L18.7031 15.1025C18.9034 15.4687 19.2052 15.7703 19.5713 15.9707L21.041 16.7744C21.4856 17.0176 21.4856 17.6562 21.041 17.8994L19.5713 18.7031C19.205 18.9035 18.9035 19.205 18.7031 19.5713L17.8994 21.041C17.6562 21.4856 17.0176 21.4856 16.7744 21.041L15.9707 19.5713C15.7703 19.2052 15.4688 18.9034 15.1025 18.7031L13.6328 17.8994C13.189 17.6559 13.1887 17.0175 13.6328 16.7744L15.1025 15.9707C15.469 15.7703 15.7703 15.4689 15.9707 15.1025L16.7744 13.6328ZM11.5274 1.90037C12.9672 1.90025 13.8327 1.8999 14.5732 2.04392C17.7014 2.65241 20.1474 5.09836 20.7559 8.22654C20.8999 8.96717 20.9005 9.8324 20.9004 11.2724V11.4951C20.9003 12.0197 20.4748 12.4452 19.9502 12.4453C19.4256 12.4453 19.0001 12.0197 19 11.4951V11.4004C19 9.79428 18.9951 9.12609 18.8906 8.58884C18.4298 6.22108 16.5787 4.36985 14.2109 3.90916C13.6737 3.80466 13.0062 3.79978 11.4004 3.79978C9.79431 3.79978 9.12612 3.80465 8.58887 3.90916C6.22116 4.36993 4.36996 6.22113 3.90919 8.58884C3.80468 9.12609 3.79981 9.79428 3.79981 11.4004C3.79981 13.0062 3.80469 13.6737 3.90919 14.2109C4.36989 16.5787 6.22111 18.4298 8.58887 18.8906C9.12612 18.9951 9.79431 19 11.4004 19C11.9249 19.0002 12.3496 19.4256 12.3496 19.9502C12.3495 20.4746 11.9248 20.9002 11.4004 20.9004C11.3574 20.9004 11.3145 20.9004 11.2725 20.9004C9.83243 20.9005 8.9672 20.8999 8.22657 20.7558C5.09839 20.1473 2.65244 17.7014 2.04395 14.5732C1.89993 13.8326 1.90028 12.9672 1.9004 11.5273V11.2724C1.90028 9.83242 1.89989 8.96717 2.04395 8.22654C2.65245 5.09834 5.09837 2.65241 8.22657 2.04392C8.9672 1.89986 9.83245 1.90025 11.2725 1.90037H11.5274ZM13.1738 12.2353C13.5568 11.929 14.1163 11.9923 14.4229 12.375C14.729 12.758 14.667 13.3166 14.2842 13.623C12.6614 14.9212 10.3552 14.9212 8.73243 13.623C8.34995 13.3165 8.28774 12.7579 8.59376 12.375C8.90013 11.9921 9.45972 11.9293 9.84278 12.2353C10.8167 13.0145 12.1999 13.0144 13.1738 12.2353ZM8.93165 7.59959C9.66727 7.59959 10.2642 8.19611 10.2647 8.93162C10.2647 9.66752 9.66755 10.2646 8.93165 10.2646C8.19613 10.2642 7.59962 9.66724 7.59962 8.93162C7.60007 8.19638 8.19641 7.60003 8.93165 7.59959ZM13.9072 7.59959C14.6427 7.59982 15.2388 8.19625 15.2393 8.93162C15.2393 9.66737 14.6429 10.2644 13.9072 10.2646C13.1715 10.2644 12.5742 9.66739 12.5742 8.93162C12.5747 8.19623 13.1718 7.5998 13.9072 7.59959Z" fill="#E93D82"/>
</svg>
