<svg width="24" height="24" viewBox="0 0 24 24" fill="none" xmlns="http://www.w3.org/2000/svg">
<path d="M17.0244 14.0328C17.2676 13.5887 17.906 13.589 18.1494 14.0328L18.9531 15.5026C19.1534 15.8688 19.4552 16.1703 19.8213 16.3707L21.291 17.1744C21.7356 17.4177 21.7356 18.0562 21.291 18.2994L19.8213 19.1032C19.455 19.3035 19.1535 19.605 18.9531 19.9713L18.1494 21.441C17.9062 21.8857 17.2676 21.8857 17.0244 21.441L16.2207 19.9713C16.0203 19.6052 15.7188 19.3034 15.3525 19.1032L13.8828 18.2994C13.439 18.056 13.4387 17.4176 13.8828 17.1744L15.3525 16.3707C15.719 16.1703 16.0203 15.869 16.2207 15.5026L17.0244 14.0328ZM11.7774 2.30042C13.2172 2.3003 14.0827 2.29995 14.8232 2.44398C17.9514 3.05247 20.3974 5.49841 21.0059 8.62659C21.1499 9.36723 21.1505 10.2325 21.1504 11.6725V11.8951C21.1503 12.4197 20.7248 12.8452 20.2002 12.8453C19.6756 12.8453 19.2501 12.4198 19.25 11.8951V11.8004C19.25 10.1943 19.2451 9.52614 19.1406 8.9889C18.6798 6.62114 16.8287 4.76991 14.4609 4.30921C13.9237 4.20472 13.2562 4.19984 11.6504 4.19984C10.0443 4.19984 9.37612 4.20471 8.83887 4.30921C6.47116 4.76998 4.61996 6.62119 4.15919 8.9889C4.05468 9.52615 4.04981 10.1943 4.04981 11.8004C4.04981 13.4062 4.05469 14.0738 4.15919 14.611C4.61989 16.9788 6.47111 18.8299 8.83887 19.2907C9.37612 19.3952 10.0443 19.4 11.6504 19.4C12.1749 19.4002 12.5996 19.8257 12.5996 20.3502C12.5995 20.8747 12.1748 21.3002 11.6504 21.3004C11.6074 21.3004 11.5645 21.3004 11.5225 21.3004C10.0824 21.3005 9.2172 21.3 8.47657 21.1559C5.34839 20.5474 2.90244 18.1015 2.29395 14.9733C2.14993 14.2327 2.15028 13.3673 2.1504 11.9274V11.6725C2.15028 10.2325 2.14989 9.36722 2.29395 8.62659C2.90245 5.4984 5.34837 3.05247 8.47657 2.44398C9.2172 2.29991 10.0824 2.3003 11.5225 2.30042H11.7774ZM13.4238 12.6354C13.8068 12.3291 14.3663 12.3923 14.6729 12.775C14.979 13.1581 14.917 13.7167 14.5342 14.0231C12.9114 15.3213 10.6052 15.3213 8.98243 14.0231C8.59995 13.7166 8.53774 13.1579 8.84376 12.775C9.15013 12.3921 9.70972 12.3293 10.0928 12.6354C11.0667 13.4145 12.4499 13.4145 13.4238 12.6354ZM9.18165 7.99964C9.91727 7.99964 10.5142 8.59616 10.5147 9.33167C10.5147 10.0676 9.91755 10.6647 9.18165 10.6647C8.44613 10.6642 7.84962 10.0673 7.84962 9.33167C7.85007 8.59644 8.44641 8.00009 9.18165 7.99964ZM14.1572 7.99964C14.8927 7.99988 15.4888 8.5963 15.4893 9.33167C15.4893 10.0674 14.8929 10.6644 14.1572 10.6647C13.4215 10.6645 12.8242 10.0674 12.8242 9.33167C12.8247 8.59629 13.4218 7.99985 14.1572 7.99964Z" fill="#C62A2F"/>
</svg>
